# This file uses meters as units for non-parametric coordinates.

mtllib BrainCoral.mtl
g default
v 27.715388 -1.366169 -23.745019
v 9.625215 -1.366169 -38.823296
v 9.079680 7.840700 -36.893534
v 25.382363 9.170751 -22.553172
v -12.751278 -0.186888 -35.311260
v -12.174289 10.965544 -33.380693
v -28.350495 -0.392239 -23.792169
v -22.736461 10.965544 -22.493730
v -33.055720 -1.366169 0.575930
v -28.647706 7.840700 0.577281
v -27.490984 -1.366169 24.955243
v -26.060024 9.123063 23.763395
v -12.666992 -1.366169 38.823296
v -12.121473 9.042271 36.893547
v 9.680737 -1.366169 38.005143
v 9.132509 7.840700 36.074439
v 26.172422 -1.366169 25.002392
v 24.739831 7.840700 23.808383
v 33.055720 -1.358334 0.634293
v 30.287815 9.320307 0.632942
v 7.496455 16.697395 -31.280577
v 20.216710 19.924641 -19.094501
v -10.583197 19.972600 -27.777727
v -19.938825 19.475708 -18.807686
v -25.471392 16.146325 0.581469
v -24.215245 20.003135 20.299726
v -10.538208 19.516644 31.293147
v 7.541441 15.696579 31.529165
v 21.635797 16.146325 20.342958
v 25.272257 16.919900 0.628754
v 4.710306 25.881295 -22.558714
v 13.748713 27.140284 -13.707560
v -8.105070 25.459249 -21.132471
v -17.604444 24.297260 -13.735253
v -21.545975 22.805899 0.587954
v -18.705644 26.475058 14.917783
v -8.072376 24.392234 23.248534
v 5.063321 20.879253 23.779609
v 15.461898 22.404113 14.945477
v 17.817892 21.375201 0.622269
v 1.735829 28.772280 -11.578936
v 6.913093 28.442508 -6.919504
v -4.982385 28.244047 -11.584476
v -10.566037 27.946287 -6.934095
v -12.694684 26.969253 0.596060
v -10.555359 26.474249 8.129728
v -4.965225 25.339415 12.789160
v 1.940637 24.791587 12.794700
v 7.276786 25.019635 8.144318
v 8.909864 25.834010 0.614163
v -1.520870 28.103408 0.605112
vt 0.307817 0.865388
vt 0.280977 0.890329
vt 0.272124 0.880997
vt 0.295846 0.858096
vt 0.272340 0.893601
vt 0.238159 0.890454
vt 0.237880 0.875070
vt 0.225954 0.885637
vt 0.204813 0.863851
vt 0.220686 0.858360
vt 0.193126 0.827246
vt 0.206395 0.824273
vt 0.192956 0.821675
vt 0.202248 0.784769
vt 0.216105 0.788394
vt 0.209545 0.774670
vt 0.237761 0.759106
vt 0.240793 0.772405
vt 0.272176 0.758501
vt 0.272493 0.771184
vt 0.280820 0.761512
vt 0.304988 0.782661
vt 0.295300 0.790124
vt 0.320130 0.818483
vt 0.305827 0.824167
vt 0.320423 0.828819
vt 0.267328 0.868299
vt 0.283010 0.849824
vt 0.242404 0.862097
vt 0.229797 0.850133
vt 0.218140 0.824489
vt 0.226344 0.798955
vt 0.244101 0.786118
vt 0.268406 0.782511
vt 0.286764 0.798344
vt 0.293645 0.824378
vt 0.262181 0.853187
vt 0.272660 0.841916
vt 0.246430 0.851611
vt 0.234685 0.842439
vt 0.228543 0.824430
vt 0.234958 0.807460
vt 0.247551 0.797137
vt 0.264612 0.794480
vt 0.277326 0.806631
vt 0.282092 0.824341
vt 0.258627 0.839381
vt 0.265166 0.833731
vt 0.250565 0.839456
vt 0.243927 0.833785
vt 0.241266 0.824697
vt 0.244272 0.815611
vt 0.251606 0.809729
vt 0.260364 0.809353
vt 0.267062 0.815195
vt 0.268911 0.824497
vt 0.255374 0.824659
vn 0.846222 0.238136 -0.476655
vn 0.276678 0.215731 -0.936434
vn 0.267637 0.353705 -0.896249
vn 0.802061 0.371802 -0.467399
vn -0.375793 0.235896 -0.896177
vn -0.348264 0.375487 -0.858907
vn -0.830530 0.400539 -0.387025
vn -0.806944 0.403759 -0.431069
vn -0.927146 0.374551 -0.010533
vn -0.935325 0.352172 -0.033781
vn -0.863180 0.246994 0.440356
vn -0.848628 0.300295 0.435492
vn -0.329942 0.197244 0.923165
vn -0.312900 0.326321 0.891969
vn 0.318029 0.203756 0.925927
vn 0.313584 0.340495 0.886413
vn 0.835137 0.216776 0.505524
vn 0.799837 0.341678 0.493474
vn 0.972155 0.233759 0.016449
vn 0.934883 0.354765 0.011669
vn 0.242955 0.607862 -0.755961
vn 0.665272 0.638739 -0.386556
vn -0.278356 0.629829 -0.725143
vn -0.772620 0.520577 -0.363397
vn -0.915030 0.396794 -0.072626
vn -0.778809 0.516804 0.355485
vn -0.223750 0.628176 0.745205
vn 0.282452 0.628507 0.724707
vn 0.653549 0.644213 0.397321
vn 0.786939 0.616694 0.020389
vn 0.152898 0.823811 -0.545855
vn 0.463063 0.865100 -0.192805
vn -0.194135 0.847633 -0.493791
vn -0.594576 0.772438 -0.223202
vn -0.689251 0.720468 -0.076540
vn -0.452685 0.875169 0.170747
vn -0.005894 0.910333 0.413834
vn 0.229782 0.872108 0.432004
vn 0.403513 0.880138 0.250070
vn 0.554893 0.827986 0.080823
vn 0.008397 0.985777 -0.167851
vn 0.252721 0.964374 0.078195
vn -0.140340 0.972686 -0.184898
vn -0.298264 0.952051 -0.068093
vn -0.301165 0.953432 -0.016318
vn -0.082828 0.995368 0.048815
vn 0.124356 0.975533 0.181303
vn 0.147070 0.958962 0.242408
vn 0.239013 0.956840 0.165319
vn 0.354669 0.921223 0.159872
vn 0.037592 0.988579 0.145942
s 1
g BrainCoral Coral
usemtl standardSurface1SG
f 1/1/1 2/2/2 3/3/3 4/4/4
f 2/5/2 5/6/5 6/7/6 3/3/3
f 5/8/5 7/9/7 8/10/8 6/7/6
f 7/9/7 9/11/9 10/12/10 8/10/8
f 9/13/9 11/14/11 12/15/12 10/12/10
f 11/16/11 13/17/13 14/18/14 12/15/12
f 13/17/13 15/19/15 16/20/16 14/18/14
f 15/21/15 17/22/17 18/23/18 16/20/16
f 17/22/17 19/24/19 20/25/20 18/23/18
f 19/26/19 1/1/1 4/4/4 20/25/20
f 4/4/4 3/3/3 21/27/21 22/28/22
f 3/3/3 6/7/6 23/29/23 21/27/21
f 6/7/6 8/10/8 24/30/24 23/29/23
f 8/10/8 10/12/10 25/31/25 24/30/24
f 10/12/10 12/15/12 26/32/26 25/31/25
f 12/15/12 14/18/14 27/33/27 26/32/26
f 14/18/14 16/20/16 28/34/28 27/33/27
f 16/20/16 18/23/18 29/35/29 28/34/28
f 18/23/18 20/25/20 30/36/30 29/35/29
f 20/25/20 4/4/4 22/28/22 30/36/30
f 22/28/22 21/27/21 31/37/31 32/38/32
f 21/27/21 23/29/23 33/39/33 31/37/31
f 23/29/23 24/30/24 34/40/34 33/39/33
f 24/30/24 25/31/25 35/41/35 34/40/34
f 25/31/25 26/32/26 36/42/36 35/41/35
f 26/32/26 27/33/27 37/43/37 36/42/36
f 27/33/27 28/34/28 38/44/38 37/43/37
f 28/34/28 29/35/29 39/45/39 38/44/38
f 29/35/29 30/36/30 40/46/40 39/45/39
f 30/36/30 22/28/22 32/38/32 40/46/40
f 32/38/32 31/37/31 41/47/41 42/48/42
f 31/37/31 33/39/33 43/49/43 41/47/41
f 33/39/33 34/40/34 44/50/44 43/49/43
f 34/40/34 35/41/35 45/51/45 44/50/44
f 35/41/35 36/42/36 46/52/46 45/51/45
f 36/42/36 37/43/37 47/53/47 46/52/46
f 37/43/37 38/44/38 48/54/48 47/53/47
f 38/44/38 39/45/39 49/55/49 48/54/48
f 39/45/39 40/46/40 50/56/50 49/55/49
f 40/46/40 32/38/32 42/48/42 50/56/50
f 42/48/42 41/47/41 51/57/51
f 41/47/41 43/49/43 51/57/51
f 43/49/43 44/50/44 51/57/51
f 44/50/44 45/51/45 51/57/51
f 45/51/45 46/52/46 51/57/51
f 46/52/46 47/53/47 51/57/51
f 47/53/47 48/54/48 51/57/51
f 48/54/48 49/55/49 51/57/51
f 49/55/49 50/56/50 51/57/51
f 50/56/50 42/48/42 51/57/51
