# This file uses meters as units for non-parametric coordinates.

mtllib Stalactite2.mtl
g default
v -119.538199 2318.663619 157.201333
v -47.728520 2335.145326 184.158618
v 56.330526 2322.473967 166.339397
v 111.260728 2300.180966 135.253848
v -134.608125 2247.499232 155.503595
v -45.415639 2247.611279 204.091020
v 58.945706 2244.950501 194.537458
v 123.439660 2242.245024 151.643805
v -33.176319 2138.170921 136.214366
v 42.603819 2149.403819 137.642394
v 103.066186 2161.584092 109.097148
v -35.814636 2013.457224 105.648235
v 44.165371 2012.268806 102.388354
v -34.631521 1922.751212 129.397912
v 30.130278 1919.646596 98.944231
v -23.580627 1797.945867 122.528172
v -42.433503 1691.122039 136.945522
v -167.035416 2335.759410 75.983111
v -47.964515 2339.227616 85.302407
v 61.606747 2341.900845 81.981918
v 141.422808 2327.217439 75.155789
v -184.828594 2247.817674 85.873676
v 143.009559 2246.846000 70.642949
v -123.385811 2144.423203 68.961087
v 126.656267 2145.704769 54.513583
v -107.715236 2020.018197 59.238653
v 122.874334 2035.700276 63.521694
v -122.551046 1910.370545 75.584271
v 105.713755 1909.967356 38.145845
v -120.158732 1797.197537 75.410698
v 56.981424 1799.832217 105.695024
v 131.796816 1797.367783 53.503637
v -76.049685 1704.669675 49.179094
v 48.542248 1691.143338 85.683894
v 107.221018 1684.420819 38.871659
v -52.866552 1591.740561 19.084048
v -34.207980 1588.688893 74.626589
v 43.971407 1581.324990 61.216673
v 108.329057 1581.418438 30.352891
v -103.302261 1471.437795 30.211829
v -46.277993 1465.781747 70.087411
v 47.210636 1463.991845 60.471578
v 106.360500 1464.934719 20.338605
v -94.519603 1380.402092 44.005175
v -49.806358 1361.928588 81.919932
v 49.800991 1357.865498 35.036278
v 134.540674 1352.901081 39.734269
v -36.049541 1262.880251 60.034274
v 56.216220 1238.297637 66.031834
v 133.250090 1246.211574 42.128660
v -43.022926 1121.616523 79.244576
v 59.877968 1131.055620 99.352276
v 96.715544 1147.453029 40.303687
v -46.414837 1017.592445 68.743452
v 64.850110 1023.077647 89.757962
v 93.750245 1040.808896 27.846093
v -27.262236 910.428276 55.924075
v 61.080149 907.706974 74.165923
v -12.995823 800.729775 42.200105
v 40.613574 789.425853 57.881330
v 4.689285 706.712302 11.759398
v 32.379826 686.749789 33.559845
v 6.513721 598.504948 -19.323262
v 34.531512 596.519827 -1.044714
v 57.774439 463.431367 30.585075
v 47.569248 364.363230 13.071679
v -209.497493 2313.908897 -26.416570
v -148.545019 2338.982223 -26.538512
v -50.933381 2310.091800 -25.061282
v 64.151630 2326.421561 -25.131210
v 180.843707 2344.184683 -28.226227
v -218.319412 2247.686277 -28.037907
v 190.692555 2244.812654 -33.471235
v -170.463574 2135.393596 -27.253503
v 178.769901 2130.066939 -31.867159
v -112.044569 2020.261641 -25.161317
v 156.170533 2014.276352 -27.789636
v -138.953302 1908.560994 -23.191807
v 138.009743 1905.519975 -24.357564
v -128.508886 1796.090117 -21.556914
v 144.800136 1798.915741 -22.818828
v -105.032848 1695.304826 -26.642113
v 131.263056 1694.312753 -21.449098
v -65.600282 1583.132592 -31.384416
v 107.051803 1575.810839 -15.364057
v -128.990429 1473.480290 -22.103743
v 106.628843 1465.117714 -13.533098
v -100.044686 1381.634609 -19.301394
v 124.113742 1344.129467 -15.312907
v -51.209472 1252.380008 -26.217111
v 146.938853 1252.614602 -19.755472
v -50.755247 1126.205650 -27.880702
v 82.063131 1147.090189 -4.864101
v -67.206851 1020.500342 -22.421278
v 92.054944 1032.549818 -6.047159
v -48.648717 913.492318 -50.488282
v 57.317992 907.064466 -42.861442
v 91.475997 929.978900 -3.473131
v -26.794998 768.393644 -28.531900
v 29.569218 789.692021 -22.731549
v -47.787300 649.223422 -31.682704
v 36.184174 618.569309 -23.504445
v -20.524455 568.767310 -28.646734
v 77.655209 525.276954 -27.218055
v 8.089835 447.655316 1.082497
v 88.286774 448.208801 -26.458609
v 73.782206 216.542054 -11.097460
v 64.801342 355.358447 -27.490560
v 75.358490 118.383343 -36.888595
v 95.583440 238.393241 -32.417602
v 40.558853 62.877560 -69.871473
v 86.331032 98.644248 -52.740185
v 61.901723 20.321679 -80.760060
v 64.985819 56.066993 -76.637093
v -174.435617 2340.419484 -133.295660
v -49.888809 2339.726803 -136.287358
v 63.122034 2335.613314 -133.116040
v 161.446022 2336.361493 -140.210006
v -172.702357 2251.275681 -137.317484
v 175.339436 2251.570123 -130.307141
v -113.228225 2142.887094 -107.240789
v 56.780280 2124.720783 -145.359517
v 124.345692 2151.531362 -96.574763
v -116.804213 2019.516761 -123.835330
v 136.489787 2007.513034 -109.796205
v -102.817970 1920.334477 -106.889948
v 107.368248 1917.072365 -92.471042
v -114.124938 1797.230086 -94.532802
v -19.173707 1803.134828 -110.571637
v 55.277245 1798.519302 -153.412323
v 107.062219 1791.414743 -93.830924
v -114.633472 1686.879253 -101.836959
v -51.394037 1686.891553 -139.957834
v 39.191167 1702.347737 -97.821895
v 111.227429 1702.868523 -88.341353
v -109.953588 1578.861157 -108.589375
v -52.496498 1574.301429 -148.417223
v 41.726905 1597.838497 -62.474642
v -102.846142 1473.310644 -99.690133
v -55.436072 1468.196082 -133.246359
v 51.018325 1445.088153 -87.314912
v -27.825539 1383.092419 -71.585482
v 63.582616 1346.893443 -131.741871
v 98.341641 1340.472565 -80.473165
v -16.241570 1243.992534 -90.844927
v 58.234978 1251.983794 -85.563297
v 101.546848 1259.905081 -76.684271
v -19.938601 1137.074583 -99.424134
v 51.686665 1156.713105 -81.673320
v -21.390906 1043.649444 -58.184448
v 45.221347 1042.720594 -60.871682
v 80.941283 421.337249 -59.749797
v 52.498814 332.384090 -67.523666
v 33.651572 236.202250 -34.258507
v 54.242404 247.000160 -82.950283
v 33.182792 170.002280 -85.457578
v -116.468635 2317.201009 -197.464892
v -44.032573 2330.720745 -222.585016
v 59.084916 2332.080459 -217.431455
v 123.777582 2325.382989 -195.706658
v -103.484140 2263.442454 -193.331847
v -39.279446 2275.983917 -207.909861
v 38.472759 2249.851469 -194.598300
v 126.282224 2263.339856 -178.694621
v -35.559099 2146.916586 -170.983141
v -31.094021 2009.104941 -166.272461
v 24.138551 2011.098537 -151.049896
v -20.603127 1932.479651 -166.436013
v 39.332013 1929.149740 -152.909518
vt 0.174625 0.051827
vt 0.179645 0.054730
vt 0.772258 0.024549
vt 0.765049 0.026232
vt 0.170509 0.045113
vt 0.235620 0.017779
vt 0.229655 0.013098
vt 0.230041 0.018006
vt 0.778405 0.032895
vt 0.769960 0.034983
vt 0.234312 0.026725
vt 0.228790 0.025210
vt 0.773051 0.043488
vt 0.232011 0.038125
vt 0.224958 0.035679
vt 0.771773 0.050332
vt 0.232388 0.045833
vt 0.771658 0.059904
vt 0.230682 0.055614
vt 0.180220 0.047065
vt 0.186591 0.053283
vt 0.175139 0.040676
vt 0.224016 0.011367
vt 0.778130 0.023696
vt 0.223918 0.018024
vt 0.223939 0.026671
vt 0.779824 0.042404
vt 0.779451 0.050798
vt 0.224078 0.046322
vt 0.779508 0.058884
vt 0.223813 0.055872
vt 0.772051 0.068133
vt 0.779268 0.066638
vt 0.230079 0.064710
vt 0.223795 0.065183
vt 0.780641 0.075652
vt 0.776263 0.075983
vt 0.229065 0.073867
vt 0.223083 0.073837
vt 0.781647 0.085665
vt 0.776605 0.086032
vt 0.228912 0.083387
vt 0.222733 0.083766
vt 0.781869 0.092445
vt 0.777998 0.094630
vt 0.229354 0.092174
vt 0.223001 0.093341
vt 0.781016 0.102013
vt 0.229789 0.102489
vt 0.223735 0.101464
vt 0.779356 0.112625
vt 0.230184 0.111363
vt 0.224535 0.109886
vt 0.779807 0.120572
vt 0.230317 0.119801
vt 0.224616 0.118837
vt 0.780373 0.129061
vt 0.230404 0.129157
vt 0.223632 0.127929
vt 0.781936 0.137465
vt 0.230901 0.138908
vt 0.782664 0.144365
vt 0.230567 0.147459
vt 0.783681 0.153042
vt 0.229346 0.155552
vt 0.785600 0.164517
vt 0.229098 0.166743
vt 0.785816 0.017853
vt 0.191545 0.047298
vt 0.198829 0.043576
vt 0.186626 0.041666
vt 0.181079 0.035252
vt 0.214949 0.010432
vt 0.786211 0.022914
vt 0.214888 0.018717
vt 0.786829 0.032158
vt 0.215751 0.028136
vt 0.786795 0.042026
vt 0.217064 0.037694
vt 0.786947 0.050830
vt 0.218054 0.046757
vt 0.786442 0.059459
vt 0.218003 0.055537
vt 0.785630 0.067210
vt 0.218412 0.064277
vt 0.784576 0.076041
vt 0.219274 0.074416
vt 0.785487 0.085141
vt 0.219755 0.083747
vt 0.786640 0.092007
vt 0.218684 0.093861
vt 0.787977 0.102717
vt 0.219014 0.101116
vt 0.787561 0.112536
vt 0.220469 0.110699
vt 0.786833 0.120609
vt 0.222031 0.119946
vt 0.788450 0.128694
vt 0.787586 0.140100
vt 0.792185 0.138816
vt 0.786765 0.148886
vt 0.792195 0.152314
vt 0.786476 0.154787
vt 0.792722 0.160136
vt 0.794032 0.165813
vt 0.229899 0.174553
vt 0.783658 0.182901
vt 0.793099 0.172838
vt 0.784556 0.190899
vt 0.795679 0.181919
vt 0.788511 0.195240
vt 0.793476 0.193157
vt 0.789880 0.198719
vt 0.790410 0.196036
vt 0.193073 0.036309
vt 0.187320 0.030070
vt 0.205430 0.011509
vt 0.794361 0.022870
vt 0.207190 0.018085
vt 0.794667 0.032714
vt 0.816974 0.036240
vt 0.794598 0.042177
vt 0.814811 0.046320
vt 0.793782 0.049992
vt 0.812766 0.052980
vt 0.792126 0.059831
vt 0.811082 0.062406
vt 0.791367 0.068315
vt 0.810261 0.068914
vt 0.791189 0.076264
vt 0.805429 0.077139
vt 0.790696 0.084031
vt 0.801566 0.089314
vt 0.793510 0.092746
vt 0.804715 0.097707
vt 0.793756 0.103937
vt 0.803481 0.103808
vt 0.793254 0.111789
vt 0.798812 0.111127
vt 0.791349 0.118985
vt 0.216114 0.120143
vt 0.220295 0.130945
vt 0.791680 0.167903
vt 0.789787 0.174766
vt 0.787090 0.182105
vt 0.790758 0.181571
vt 0.789594 0.187317
vt 0.805936 0.018366
vt 0.800437 0.018470
vt 0.813180 0.019853
vt 0.199954 0.013014
vt 0.800610 0.022741
vt 0.201583 0.018063
vt 0.802959 0.032981
vt 0.810402 0.025963
vt 0.810163 0.036250
vt 0.806032 0.044267
vt 0.801684 0.043694
vt 0.801575 0.049443
vt 0.806000 0.050696
vt 0.799554 0.060042
vt 0.805809 0.060252
vt 0.797022 0.068955
vt 0.804663 0.068377
vt 0.796160 0.077159
vt 0.794489 0.084692
vt 0.800464 0.096866
vt 0.799960 0.104006
vt 0.805360 0.022683
vt 0.182949 0.024202
vt 0.187941 0.023587
vt 0.192275 0.026224
vt 0.197618 0.031739
vt 0.199947 0.037018
vt 0.794195 0.016139
vt 0.175612 0.028421
vt 0.171685 0.035737
vt 0.194667 0.051059
vt 0.777289 0.017015
vt 0.168943 0.040385
vt 0.770385 0.019381
vt 0.235252 0.011303
vt 0.243997 0.010872
vt 0.817125 0.026319
vt 0.208606 0.027358
vt 0.817925 0.021573
vt 0.796156 0.130315
vt 0.224276 0.140273
vt 0.213387 0.101415
vt 0.213189 0.094209
vt 0.211904 0.085288
vt 0.212606 0.073411
vt 0.212663 0.063454
vt 0.211672 0.056254
vt 0.211824 0.046315
vt 0.210241 0.038900
vt 0.227579 0.201452
vt 0.226688 0.197202
vt 0.227429 0.204391
vt 0.229691 0.201117
vt 0.225851 0.185686
vt 0.228011 0.195381
vt 0.226357 0.175735
vt 0.228536 0.187122
vt 0.224187 0.168217
vt 0.233626 0.167680
vt 0.224961 0.161638
vt 0.227420 0.153824
vt 0.232091 0.155570
vt 0.233769 0.146703
vt 0.235601 0.138622
vt 0.237730 0.129474
vt 0.239400 0.120307
vt 0.238769 0.111478
vt 0.237066 0.099718
vt 0.238014 0.091260
vt 0.236669 0.083035
vt 0.235651 0.073580
vt 0.238679 0.064638
vt 0.237154 0.056011
vt 0.238336 0.046061
vt 0.238545 0.038754
vt 0.240246 0.028611
vt 0.243826 0.018312
vt 0.764446 0.019344
vt 0.796479 0.119846
vt 0.213550 0.111021
vn -0.080397 0.751730 0.654552
vn -0.494617 0.633853 0.594629
vn -0.620293 -0.264267 0.738511
vn -0.198881 -0.252300 0.946990
vn 0.235034 0.745689 0.623464
vn 0.275853 -0.172975 0.945508
vn 0.671106 0.503372 0.544273
vn 0.750158 -0.170107 0.639004
vn -0.738382 -0.391450 0.549144
vn -0.279077 -0.404544 0.870896
vn 0.244974 -0.383920 0.890277
vn 0.664239 -0.321818 0.674699
vn -0.300732 -0.047686 0.952516
vn 0.350693 -0.171924 0.920574
vn 0.740188 -0.163044 0.652333
vn -0.195599 0.068091 0.978317
vn 0.442058 0.034175 0.896335
vn -0.132790 -0.057935 0.989450
vn 0.487035 0.010764 0.873316
vn -0.007246 0.999610 -0.026963
vn -0.516358 0.826455 0.224380
vn 0.032965 0.999289 0.018314
vn 0.624809 0.721444 0.298551
vn -0.890245 -0.168226 0.423278
vn 0.913627 -0.075860 0.399413
vn 0.893160 -0.129413 0.430717
vn -0.832312 -0.040127 0.552853
vn -0.824539 0.060651 0.562545
vn 0.776169 0.006225 0.630494
vn -0.828360 -0.140812 0.542210
vn 0.800125 0.003883 0.599821
vn -0.263587 -0.260412 0.928821
vn -0.877537 -0.266590 0.398571
vn 0.444847 -0.203924 0.872081
vn 0.779710 -0.174475 0.601341
vn -0.911140 -0.020409 0.411591
vn -0.350082 -0.185583 0.918151
vn 0.355273 -0.141700 0.923960
vn 0.776734 -0.087648 0.623701
vn -0.848580 0.168579 0.501491
vn -0.177800 0.041671 0.983184
vn 0.283315 -0.033664 0.958436
vn 0.751933 0.035226 0.658298
vn -0.873880 -0.207872 0.439458
vn -0.018017 -0.022506 0.999584
vn 0.214869 0.036863 0.975947
vn 0.642331 0.147172 0.752164
vn -0.610977 -0.015421 0.791498
vn 0.146647 0.133705 0.980111
vn 0.743020 -0.037147 0.668237
vn -0.687022 0.068120 0.723437
vn 0.211147 0.042865 0.976514
vn 0.909372 -0.119737 0.398378
vn -0.709557 -0.104782 0.696814
vn 0.355642 -0.123839 0.926381
vn 0.964447 -0.043584 0.260659
vn -0.717938 -0.178773 0.672759
vn 0.543208 -0.255579 0.799753
vn 0.979355 -0.166918 -0.114030
vn -0.767776 -0.153698 0.622010
vn 0.723543 -0.297074 0.623083
vn -0.674356 -0.171308 0.718260
vn 0.878093 -0.158607 0.451438
vn -0.495285 -0.086838 0.864379
vn -0.046701 0.094118 0.994465
vn -0.965761 -0.070963 -0.249538
vn 0.217881 0.043145 0.975021
vn -0.892373 0.451298 0.001277
vn -0.029545 0.999359 0.020212
vn -0.523700 0.803435 -0.283249
vn 0.026254 0.999654 -0.001481
vn -0.062425 0.998048 -0.001555
vn 0.646676 0.756903 0.094381
vn -0.969388 -0.241939 -0.041851
vn 0.992186 -0.092195 0.084066
vn -0.920567 -0.389139 -0.033571
vn 0.988868 -0.144513 0.035444
vn -0.996752 -0.080153 -0.007775
vn 0.990280 -0.132433 0.042503
vn -0.997798 0.040256 -0.052720
vn 0.998171 -0.060425 -0.002014
vn -0.991061 -0.133164 0.008145
vn 0.996932 -0.006051 -0.078040
vn -0.944624 -0.244082 0.219340
vn 0.955186 -0.223579 -0.193988
vn -0.956644 0.051860 0.286606
vn 0.882799 -0.089990 -0.461050
vn -0.999816 0.000526 -0.019168
vn 0.868826 0.132937 -0.476937
vn -0.903999 -0.342802 -0.255485
vn 0.929326 0.173888 -0.325755
vn -0.969524 -0.105557 -0.221090
vn 0.933757 -0.199960 -0.296839
vn -0.990968 0.030185 -0.130659
vn 0.894296 -0.244247 -0.374938
vn -0.997626 -0.053923 -0.042833
vn 0.877246 -0.011437 -0.479904
vn -0.735564 -0.225749 -0.638736
vn -0.648096 -0.149700 -0.746700
vn 0.668781 -0.175934 -0.722343
vn -0.392995 -0.136187 -0.909400
vn 0.478778 0.054978 -0.876213
vn -0.387325 -0.021512 -0.921692
vn 0.483131 0.178678 -0.857122
vn 0.941361 -0.023372 0.336590
vn 0.126457 -0.217805 0.967765
vn -0.079973 -0.026497 0.996445
vn 0.996227 -0.052891 0.068806
vn -0.508590 -0.214655 0.833822
vn 0.980298 0.027546 -0.195592
vn -0.904801 -0.391331 0.167913
vn 0.902376 -0.118037 -0.414470
vn -0.364469 -0.598542 -0.713379
vn 0.102402 -0.328480 -0.938944
vn 0.007252 0.999583 0.027969
vn -0.034942 0.998958 0.029348
vn 0.558037 0.797046 -0.230894
vn -0.765529 -0.294701 -0.571942
vn 0.900917 -0.135980 -0.412138
vn -0.732658 -0.292760 -0.614413
vn 0.687772 -0.214555 -0.693495
vn -0.794680 -0.062735 -0.603779
vn 0.711927 -0.077594 -0.697953
vn -0.752034 -0.111463 -0.649631
vn 0.781485 -0.070418 -0.619938
vn -0.743565 -0.046886 -0.667018
vn 0.777918 -0.063497 -0.625150
vn -0.887037 -0.017795 -0.461356
vn 0.685990 -0.267459 -0.676671
vn -0.942036 0.007073 -0.335438
vn 0.618596 -0.077263 -0.781901
vn -0.865814 -0.169009 -0.470958
vn 0.549799 0.070289 -0.832334
vn -0.506980 -0.206847 -0.836771
vn 0.805761 0.123333 -0.579256
vn -0.531615 -0.049862 -0.845517
vn 0.764535 -0.220235 -0.605791
vn -0.425942 -0.101771 -0.899008
vn 0.535689 -0.202653 -0.819737
vn -0.248489 -0.136068 -0.959030
vn 0.450831 -0.119550 -0.884567
vn 0.327813 -0.136744 -0.934794
vn -0.510245 -0.168974 -0.843266
vn -0.610268 -0.005344 -0.792177
vn -0.882449 0.080642 0.463444
vn 0.200846 0.173779 -0.964086
vn -0.435016 -0.237907 -0.868424
vn -0.051709 0.730147 -0.681331
vn -0.427882 0.562615 -0.707376
vn 0.131397 0.657411 -0.741988
vn 0.420312 0.488648 -0.764566
vn -0.422029 -0.323681 -0.846831
vn 0.498191 -0.314609 -0.807977
vn -0.206440 -0.218364 -0.953782
vn 0.213548 -0.312784 -0.925507
vn 0.363253 -0.168354 -0.916354
vn 0.371395 -0.044217 -0.927421
vn -0.334444 -0.034457 -0.941786
vn -0.277564 -0.165230 -0.946392
vn 0.333846 -0.088968 -0.938420
vn -0.243837 -0.117171 -0.962712
vn 0.312400 -0.125648 -0.941604
vn 0.013147 0.009949 -0.999864
vn 0.350199 -0.180378 -0.919143
vn 0.211643 -0.017177 -0.977196
vn 0.133974 -0.085599 -0.987281
vn 0.015833 -0.083177 -0.996409
vn 0.013998 -0.100006 -0.994888
vn -0.038431 -0.263996 -0.963758
s 1
g Stalactite2_LowPoly:Group1 Group_3
usemtl initialShadingGroup
f 2/225/1 1/181/2 5/3/3 6/4/4
f 3/182/5 2/183/1 6/224/4 7/6/6
f 4/7/7 3/182/5 7/6/6 8/8/8
f 5/3/3 24/9/9 9/10/10 6/4/4
f 7/6/6 6/224/4 9/223/10 10/11/11
f 8/8/8 7/6/6 10/11/11 11/12/12
f 10/11/11 9/223/10 12/222/13 13/14/14
f 13/14/14 27/15/15 11/12/12 10/11/11
f 13/14/14 12/222/13 14/221/16 15/17/17
f 16/220/18 31/19/19 15/17/17 14/221/16
f 19/20/20 18/21/21 1/2/2 2/1/1
f 20/22/22 19/20/20 2/1/1 3/5/5
f 21/177/23 20/22/22 3/5/5 4/180/7
f 1/181/2 18/179/21 22/24/24 5/3/3
f 21/23/23 4/7/7 8/8/8 23/25/25
f 24/9/9 5/3/3 22/24/24
f 23/25/25 8/8/8 11/12/12 25/26/26
f 12/13/13 9/10/10 24/9/9 26/27/27
f 11/12/12 27/15/15 25/26/26
f 14/16/16 12/13/13 26/27/27 28/28/28
f 13/14/14 15/17/17 29/29/29 27/15/15
f 16/18/18 14/16/16 28/28/28 30/30/30
f 31/19/19 32/31/31 29/29/29 15/17/17
f 17/32/32 16/18/18 30/30/30 33/33/33
f 16/220/18 17/219/32 34/34/34 31/19/19
f 32/31/31 31/19/19 34/34/34 35/35/35
f 33/33/33 36/36/36 37/37/37 17/32/32
f 37/218/37 38/38/38 34/34/34 17/219/32
f 35/35/35 34/34/34 38/38/38 39/39/39
f 37/37/37 36/36/36 40/40/40 41/41/41
f 38/38/38 37/218/37 41/217/41 42/42/42
f 39/39/39 38/38/38 42/42/42 43/43/43
f 41/41/41 40/40/40 44/44/44 45/45/45
f 42/42/42 41/217/41 45/216/45 46/46/46
f 43/43/43 42/42/42 46/46/46 47/47/47
f 44/44/44 48/48/48 45/45/45
f 46/46/46 45/216/45 48/215/48 49/49/49
f 47/47/47 46/46/46 49/49/49 50/50/50
f 49/49/49 48/215/48 51/214/51 52/52/52
f 50/50/50 49/49/49 52/52/52 53/53/53
f 52/52/52 51/214/51 54/213/54 55/55/55
f 53/53/53 52/52/52 55/55/55 56/56/56
f 55/55/55 54/213/54 57/212/57 58/58/58
f 58/58/58 98/59/59 56/56/56 55/55/55
f 58/58/58 57/212/57 59/211/60 60/61/61
f 60/61/61 59/211/60 61/210/62 62/63/63
f 62/63/63 61/210/62 63/209/64 64/65/65
f 63/209/64 105/206/66 65/67/67 64/65/65
f 67/178/68 18/21/21 68/69/69 115/70/70
f 69/71/71 68/69/69 18/21/21 19/20/20
f 70/72/72 69/71/71 19/20/20 20/22/22
f 71/176/73 70/72/72 20/22/22 21/177/23
f 22/24/24 18/179/21 67/68/68 72/74/74
f 71/73/73 21/23/23 23/25/25 73/75/75
f 74/76/76 24/9/9 22/24/24 72/74/74
f 73/75/75 23/25/25 25/26/26 75/77/77
f 24/9/9 74/76/76 76/78/78 26/27/27
f 75/77/77 25/26/26 27/15/15 77/79/79
f 26/27/27 76/78/78 78/80/80 28/28/28
f 77/79/79 27/15/15 29/29/29 79/81/81
f 28/28/28 78/80/80 80/82/82 30/30/30
f 79/81/81 29/29/29 32/31/31 81/83/83
f 30/30/30 80/82/82 82/84/84 33/33/33
f 81/83/83 32/31/31 35/35/35 83/85/85
f 33/33/33 82/84/84 84/86/86 36/36/36
f 83/85/85 35/35/35 39/39/39 85/87/87
f 36/36/36 84/86/86 86/88/88 40/40/40
f 85/87/87 39/39/39 43/43/43 87/89/89
f 40/40/40 86/88/88 88/90/90 44/44/44
f 87/89/89 43/43/43 47/47/47 89/91/91
f 44/44/44 88/90/90 90/92/92 48/48/48
f 89/91/91 47/47/47 50/50/50 91/93/93
f 48/48/48 90/92/92 92/94/94 51/51/51
f 91/93/93 50/50/50 53/53/53 93/95/95
f 51/51/51 92/94/94 94/96/96 54/54/54
f 93/95/95 53/53/53 56/56/56 95/97/97
f 54/54/54 94/96/96 96/98/98 57/57/57
f 56/56/56 98/59/59 95/97/97
f 57/57/57 96/98/98 99/99/99 59/60/60
f 58/58/58 60/61/61 100/188/100 98/59/59
f 59/60/60 99/99/99 101/101/101 61/62/62
f 100/188/100 60/61/61 62/63/63 102/208/102
f 61/62/62 101/101/101 103/103/103 63/64/64
f 102/208/102 62/63/63 64/65/65 104/207/104
f 105/66/66 63/64/64 103/103/103
f 104/207/104 64/65/65 65/67/67 106/205/105
f 66/106/106 65/67/67 105/206/66 107/204/107
f 106/205/105 65/67/67 66/106/106 108/203/108
f 107/204/107 109/202/109 110/201/110 66/106/106
f 66/106/106 110/201/110 108/203/108
f 110/201/110 109/202/109 111/200/111 112/198/112
f 112/198/112 111/200/111 113/199/113 114/197/114
f 116/115/115 115/70/70 68/69/69 69/71/71
f 117/116/116 116/115/115 69/71/71 70/72/72
f 118/170/117 117/116/116 70/72/72 71/176/73
f 72/74/74 67/68/68 115/175/70 119/118/118
f 118/117/117 71/73/73 73/75/75 120/119/119
f 119/118/118 121/120/120 74/76/76 72/74/74
f 120/119/119 73/75/75 75/77/77 123/185/121
f 74/76/76 121/120/120 124/122/122 76/78/78
f 123/185/121 75/77/77 77/79/79 125/196/123
f 76/78/78 124/122/122 126/124/124 78/80/80
f 125/196/123 77/79/79 79/81/81 127/195/125
f 78/80/80 126/124/124 128/126/126 80/82/82
f 127/195/125 79/81/81 81/83/83 131/194/127
f 80/82/82 128/126/126 132/128/128 82/84/84
f 131/194/127 81/83/83 83/85/85 135/193/129
f 82/84/84 132/128/128 136/130/130 84/86/86
f 138/192/131 135/193/129 83/85/85 85/87/87
f 84/86/86 136/130/130 139/132/132 86/88/88
f 141/191/133 138/192/131 85/87/87 87/89/89
f 139/132/132 142/134/134 88/90/90 86/88/88
f 144/190/135 141/191/133 87/89/89 89/91/91
f 142/134/134 145/136/136 90/92/92 88/90/90
f 144/190/135 89/91/91 91/93/93 147/189/137
f 90/92/92 145/136/136 148/138/138 92/94/94
f 149/227/139 147/189/137 91/93/93 93/95/95
f 92/94/94 148/138/138 150/140/140 94/96/96
f 151/141/141 149/227/139 93/95/95 95/97/97
f 150/140/140 96/98/98 94/96/96
f 150/140/140 151/226/141 97/187/142 96/98/98
f 95/97/97 98/59/59 97/142/142 151/141/141
f 96/98/98 97/187/142 100/100/100 99/99/99
f 98/59/59 100/188/100 97/142/142
f 99/99/99 100/100/100 102/102/102 101/101/101
f 101/101/101 102/102/102 104/104/104 103/103/103
f 105/66/66 103/103/103 104/104/104 152/143/143
f 152/143/143 104/104/104 106/105/105
f 107/107/107 105/66/66 152/143/143 153/144/144
f 152/143/143 106/105/105 108/108/108 153/144/144
f 107/107/107 153/144/144 154/145/145 109/109/109
f 153/144/144 108/108/108 110/110/110 155/146/146
f 154/145/145 156/147/147 111/111/111 109/109/109
f 155/146/146 110/110/110 112/112/112 156/147/147
f 114/114/114 113/113/113 111/111/111 156/147/147
f 114/114/114 156/147/147 112/112/112
f 158/173/148 157/174/149 115/70/70 116/115/115
f 159/172/150 158/173/148 116/115/115 117/116/116
f 160/171/151 159/172/150 117/116/116 118/170/117
f 115/175/70 157/149/149 161/152/152 119/118/118
f 160/151/151 118/117/117 120/119/119 164/153/153
f 161/152/152 165/154/154 121/120/120 119/118/118
f 165/154/154 163/155/155 122/156/156 167/157/157
f 163/155/155 164/184/153 123/121/121 122/156/156
f 123/185/121 164/153/153 120/119/119
f 124/122/122 121/120/120 165/154/154 166/158/158
f 122/156/156 123/121/121 125/123/123 167/157/157
f 126/124/124 124/122/122 166/158/158 168/159/159
f 169/160/160 167/157/157 125/123/123 127/125/125
f 129/161/161 128/126/126 126/124/124 168/159/159
f 168/159/159 169/160/160 130/162/162 129/161/161
f 127/125/125 131/127/127 130/162/162 169/160/160
f 128/126/126 129/161/161 133/163/163 132/128/128
f 129/161/161 130/162/162 134/164/164 133/163/163
f 130/162/162 131/127/127 135/129/129 134/164/164
f 132/128/128 133/163/163 137/165/165 136/130/130
f 133/163/163 134/164/164 138/131/131 137/165/165
f 135/129/129 138/131/131 134/164/164
f 136/130/130 137/165/165 140/166/166 139/132/132
f 137/165/165 138/131/131 141/133/133 140/166/166
f 142/134/134 139/132/132 140/166/166
f 140/166/166 141/133/133 143/167/167 142/134/134
f 141/133/133 144/135/135 143/167/167
f 142/134/134 143/167/167 146/168/168 145/136/136
f 143/167/167 144/135/135 147/137/137 146/168/168
f 145/136/136 146/168/168 149/139/139 148/138/138
f 147/137/137 149/139/139 146/168/168
f 148/138/138 149/139/139 151/226/141 150/140/140
f 154/145/145 153/144/144 155/146/146 156/147/147
f 157/149/149 158/148/148 162/169/169 161/152/152
f 158/148/148 159/150/150 163/155/155 162/169/169
f 159/150/150 160/186/151 164/184/153 163/155/155
f 165/154/154 161/152/152 162/169/169 163/155/155
f 165/154/154 167/157/157 166/158/158
f 166/158/158 167/157/157 169/160/160 168/159/159
